<svg xmlns="http://www.w3.org/2000/svg" version="1.1" xmlns:xlink="http://www.w3.org/1999/xlink" xmlns:svgjs="http://svgjs.dev/svgjs" width="1000" height="1000" viewBox="0 0 1000 1000"><rect width="1000" height="1000" fill="#000000"></rect><g transform="matrix(0.7,0,0,0.7,149.57575757575756,428.2383167376535)"><svg viewBox="0 0 396 81" data-background-color="#444444" preserveAspectRatio="xMidYMid meet" height="204" width="1000" xmlns="http://www.w3.org/2000/svg" xmlns:xlink="http://www.w3.org/1999/xlink"><g id="tight-bounds" transform="matrix(1,0,0,1,0.2400000000000091,0.2051564723394108)"><svg viewBox="0 0 395.52 80.58951435903354" height="80.58951435903354" width="395.52"><g><svg viewBox="0 0 395.52 80.58951435903354" height="80.58951435903354" width="395.52"><g><svg viewBox="0 0 533.2252615710165 108.6477671773282" height="80.58951435903354" width="395.52"><g transform="matrix(1,0,0,1,137.70526157101656,23.552548940406382)"><svg viewBox="0 0 395.52 61.54266929651544" height="61.54266929651544" width="395.52"><g id="textblocktransform"><svg viewBox="0 0 395.52 61.54266929651544" height="61.54266929651544" width="395.52" id="textblock"><g><svg viewBox="0 0 395.52 61.54266929651544" height="61.54266929651544" width="395.52"><g transform="matrix(1,0,0,1,0,0)"><svg width="395.52" viewBox="2.25 -35 228.13 35.5" height="61.54266929651544" data-palette-color="#ffffff"><path d="M12-35L21.15-35 21.15-30.6 12.3-30.6Q7.25-30.6 7.25-26.5L7.25-26.5Q7.25-24.3 9.47-22.78 11.7-21.25 15.5-19.85L15.5-19.85Q17.2-19.2 18.4-18.53 19.6-17.85 20.8-16.75 22-15.65 22.6-13.93 23.2-12.2 23.2-9.95L23.2-9.95Q23.2-7.45 22.15-5.48 21.1-3.5 19.45-2.38 17.8-1.25 16.07-0.68 14.35-0.1 12.7-0.05L12.7-0.05Q12 0 10.7 0L10.7 0 2.9 0 2.9-4.4 10.55-4.4Q13.95-4.4 16.1-5.83 18.25-7.25 18.25-10L18.25-10Q18.25-11.35 17.65-12.38 17.05-13.4 15.93-14.15 14.8-14.9 13.63-15.45 12.45-16 10.8-16.6L10.8-16.6Q10.35-16.75 10.1-16.85L10.1-16.85Q2.25-19.85 2.25-26.65L2.25-26.65Q2.25-30.85 4.95-32.93 7.65-35 12-35L12-35ZM39.95-24.5L39.95-24.5Q48.45-24.15 48.45-17.45L48.45-17.45Q48.45-9.1 37.5-9.1L37.5-9.1 35.45-9.1 35.45-12.95 37.85-12.95Q41.2-12.95 42.5-13.98 43.8-15 43.8-17.4L43.8-17.4Q43.8-18.95 42.65-19.73 41.5-20.5 39.7-20.5L39.7-20.5Q36.15-20.5 34.12-18 32.1-15.5 32.1-12L32.1-12Q32.1-8.3 34.27-6 36.45-3.7 39.95-3.7L39.95-3.7Q43.1-3.7 45.1-5.25L45.1-5.25 48.1-2.3Q44.65 0.5 39.95 0.5L39.95 0.5Q34.25 0.5 30.85-2.85 27.45-6.2 27.45-11.5L27.45-11.5Q27.45-17.4 30.8-21.05 34.15-24.7 39.95-24.5ZM55.4-19.8L50.95-19.8 59.9-28.75 59.9-24 66.65-24 66.65-19.8 59.9-19.8 59.9-9.5Q59.9-7.75 60.47-6.6 61.05-5.45 62.15-4.98 63.25-4.5 64.22-4.35 65.2-4.2 66.65-4.2L66.65-4.2 66.65 0Q60.9 0 58.15-2.2 55.4-4.4 55.4-9.5L55.4-9.5 55.4-19.8ZM84.99-19.8L80.54-19.8 89.49-28.75 89.49-24 96.24-24 96.24-19.8 89.49-19.8 89.49-9.5Q89.49-7.75 90.07-6.6 90.64-5.45 91.74-4.98 92.84-4.5 93.82-4.35 94.79-4.2 96.24-4.2L96.24-4.2 96.24 0Q90.49 0 87.74-2.2 84.99-4.4 84.99-9.5L84.99-9.5 84.99-19.8ZM104.64 0L100.24 0 100.24-13.65Q100.24-19.4 102.39-21.6L102.39-21.6Q103.44-22.7 104.94-23.25 106.44-23.8 107.56-23.9 108.69-24 110.64-24L110.64-24 115.04-24 115.04-19.8 109.74-19.8Q108.74-19.8 108.19-19.75 107.64-19.7 106.89-19.4 106.14-19.1 105.59-18.45L105.59-18.45Q104.64-17.25 104.64-13.65L104.64-13.65 104.64 0ZM131.64-14.1L131.64-14.1 131.64-9.6Q129.74-11.05 126.99-11.05L126.99-11.05Q124.64-11.05 123.34-10.13 122.04-9.2 122.04-7.5L122.04-7.5Q122.04-4.2 126.94-4.2L126.94-4.2 133.54-4.2 133.54-13.75Q133.54-19.8 127.64-19.8L127.64-19.8 119.64-19.8 119.64-24 127.89-24Q132.74-24 135.34-21.6 137.94-19.2 137.94-14.7L137.94-14.7 137.94 0 126.79 0Q122.54 0 120.04-1.9 117.54-3.8 117.54-7.45 117.54-11.1 120.19-13 122.84-14.9 126.84-14.9L126.84-14.9Q129.09-14.9 131.64-14.1ZM159.83-5.25L159.83-5.25 162.83-2.3Q159.38 0.5 154.93 0.5L154.93 0.5Q149.38 0.5 146.03-3.08 142.68-6.65 142.68-12L142.68-12Q142.68-17.25 146.21-20.88 149.73-24.5 154.93-24.5L154.93-24.5Q159.38-24.5 162.83-21.7L162.83-21.7 159.88-18.7Q157.78-20.3 154.93-20.3L154.93-20.3Q151.48-20.3 149.46-18.03 147.43-15.75 147.43-12 147.43-8.25 149.46-5.98 151.48-3.7 154.93-3.7L154.93-3.7Q157.83-3.7 159.83-5.25ZM175.68-14.45L180.88-24 185.73-24 179.68-13.55Q185.83-11.9 185.83-3.6L185.83-3.6 185.83 0 181.43 0 181.43-3.65Q181.43-7 179.46-8.83 177.48-10.65 173.83-10.65L173.83-10.65Q172.68-10.65 171.48-10.5L171.48-10.5 171.48 0 167.08 0 167.08-35 171.48-35 171.48-14.45Q173.58-14.75 175.68-14.45L175.68-14.45ZM202.83-24.5L202.83-24.5Q211.33-24.15 211.33-17.45L211.33-17.45Q211.33-9.1 200.38-9.1L200.38-9.1 198.33-9.1 198.33-12.95 200.73-12.95Q204.08-12.95 205.38-13.98 206.68-15 206.68-17.4L206.68-17.4Q206.68-18.95 205.53-19.73 204.38-20.5 202.58-20.5L202.58-20.5Q199.03-20.5 197-18 194.98-15.5 194.98-12L194.98-12Q194.98-8.3 197.15-6 199.33-3.7 202.83-3.7L202.83-3.7Q205.98-3.7 207.98-5.25L207.98-5.25 210.98-2.3Q207.53 0.5 202.83 0.5L202.83 0.5Q197.13 0.5 193.73-2.85 190.33-6.2 190.33-11.5L190.33-11.5Q190.33-17.4 193.68-21.05 197.03-24.7 202.83-24.5ZM219.98 0L215.58 0 215.58-13.65Q215.58-19.4 217.73-21.6L217.73-21.6Q218.78-22.7 220.28-23.25 221.78-23.8 222.9-23.9 224.03-24 225.98-24L225.98-24 230.38-24 230.38-19.8 225.08-19.8Q224.08-19.8 223.53-19.75 222.98-19.7 222.23-19.4 221.48-19.1 220.93-18.45L220.93-18.45Q219.98-17.25 219.98-13.65L219.98-13.65 219.98 0Z" opacity="1" transform="matrix(1,0,0,1,0,0)" fill="#ffffff" class="wordmark-text-0" data-fill-palette-color="primary" id="text-0"></path></svg></g></svg></g></svg></g></svg></g><g><svg viewBox="0 0 108.6477671773282 108.6477671773282" height="108.6477671773282" width="108.6477671773282"><g><svg></svg></g><g id="icon-0"><svg viewBox="0 0 108.6477671773282 108.6477671773282" height="108.6477671773282" width="108.6477671773282"><g><path d="M0 54.324c0-30.002 24.322-54.324 54.324-54.324 30.002 0 54.324 24.322 54.324 54.324 0 30.002-24.322 54.324-54.324 54.324-30.002 0-54.324-24.322-54.324-54.324zM54.324 103.098c26.937 0 48.774-21.837 48.774-48.774 0-26.937-21.837-48.774-48.774-48.774-26.937 0-48.774 21.837-48.774 48.774 0 26.937 21.837 48.774 48.774 48.774z" data-fill-palette-color="accent" fill="#ffffff" stroke="transparent"></path></g><g transform="matrix(1,0,0,1,33.6868386195506,26.316991833923318)"><svg viewBox="0 0 41.274089938227014 56.01378350948157" height="56.01378350948157" width="41.274089938227014"><g><svg xmlns="http://www.w3.org/2000/svg" xmlns:xlink="http://www.w3.org/1999/xlink" version="1.1" x="0" y="0" viewBox="14.999 2.5 70.00500000000001 95.00500000000001" style="enable-background:new 0 0 100 100;" xml:space="preserve" height="56.01378350948157" width="41.274089938227014" class="icon-z$-0" data-fill-palette-color="accent" id="z$-0"><path d="M74.749 12.754C68.139 6.141 59.352 2.5 50.001 2.5c-9.35 0-18.139 3.641-24.748 10.254C18.642 19.361 14.999 28.15 14.999 37.5c0 6.32 1.461 11.618 4.598 16.669 2.77 4.463 6.482 8.147 10.416 12.051 7.25 7.197 15.471 15.354 18.973 30.474 0.109 0.476 0.529 0.811 1.016 0.811 0.484 0 0.904-0.335 1.014-0.811C54.52 81.574 62.74 73.419 69.992 66.22c3.932-3.901 7.646-7.588 10.412-12.051 3.137-5.051 4.6-10.349 4.6-16.669C85.001 28.15 81.359 19.361 74.749 12.754zM50.001 64.77C34.964 64.77 22.73 52.54 22.73 37.5c0-15.036 12.234-27.269 27.271-27.269 15.035 0 27.271 12.232 27.271 27.269S65.036 64.77 50.001 64.77z" fill="#ffffff" data-fill-palette-color="accent"></path><path d="M67.581 35.141l-0.92-0.002c-0.015 0-0.024 0.002-0.041 0.005v-2.759c0-0.217-0.084-0.42-0.238-0.574-0.153-0.152-0.356-0.238-0.573-0.238h-0.701c-0.217 0-0.422 0.084-0.572 0.238-0.154 0.154-0.24 0.357-0.24 0.574l0.002 9.779c-0.002 0.217 0.086 0.42 0.238 0.574 0.15 0.154 0.355 0.238 0.572 0.238h0.699c0.217 0 0.42-0.084 0.574-0.238 0.152-0.154 0.238-0.357 0.238-0.574v-2.758c0.014 0.002 0.025 0.003 0.041 0.003h0.92c0.146 0 0.285-0.058 0.389-0.163 0.104-0.104 0.162-0.24 0.162-0.387v-3.17c0-0.146-0.059-0.283-0.162-0.389C67.866 35.197 67.727 35.139 67.581 35.141z" fill="#ffffff" data-fill-palette-color="accent"></path><path d="M34.892 31.572h-0.701c-0.217 0-0.422 0.084-0.574 0.238-0.154 0.153-0.238 0.357-0.238 0.572l0.002 2.76c-0.018-0.002-0.031-0.004-0.045-0.004h-0.918c-0.146 0-0.285 0.059-0.389 0.162-0.105 0.105-0.162 0.242-0.16 0.389v3.17c-0.002 0.146 0.055 0.283 0.16 0.388 0.104 0.104 0.242 0.162 0.389 0.162h0.918c0.014 0 0.027-0.001 0.043-0.003v2.758c0 0.449 0.365 0.813 0.813 0.813h0.701c0.215 0 0.42-0.084 0.572-0.238 0.154-0.154 0.24-0.357 0.24-0.574v-9.779C35.704 31.938 35.339 31.572 34.892 31.572z" fill="#ffffff" data-fill-palette-color="accent"></path><path d="M62.143 29.238h-1.226c-0.287 0-0.558 0.113-0.76 0.316-0.205 0.203-0.316 0.473-0.316 0.761v5.272H40.157v-5.272c0-0.595-0.482-1.077-1.076-1.077h-1.227c-0.287 0-0.555 0.113-0.758 0.316-0.205 0.203-0.316 0.472-0.316 0.759v13.921c0 0.594 0.48 1.076 1.076 1.076h1.225c0.285 0 0.557-0.113 0.76-0.317 0.203-0.203 0.316-0.473 0.316-0.757v-5.271h19.684v5.271c0 0.591 0.482 1.074 1.076 1.074h1.226c0.287 0 0.558-0.113 0.76-0.317 0.203-0.201 0.316-0.472 0.316-0.759V30.313C63.219 29.721 62.734 29.238 62.143 29.238z" fill="#ffffff" data-fill-palette-color="accent"></path></svg></g></svg></g></svg></g></svg></g></svg></g></svg></g><defs></defs></svg><rect width="395.52" height="80.58951435903354" fill="none" stroke="none" visibility="hidden"></rect></g></svg></g></svg>